<svg width="64" height="64" viewBox="0 0 64 64" fill="none" xmlns="http://www.w3.org/2000/svg">
  <defs>
    <linearGradient id="gemini-gradient" x1="0" y1="0" x2="64" y2="64" gradientUnits="userSpaceOnUse">
      <stop stop-color="#A78BFA"/>
      <stop offset="1" stop-color="#DB2777"/>
    </linearGradient>
  </defs>
  <rect width="64" height="64" rx="12" fill="#111827"/>
  <path fill-rule="evenodd" clip-rule="evenodd" d="M32 12C43.0457 12 52 20.9543 52 32C52 38.6531 48.3391 44.4373 42.6868 47.4589C40.612 48.604 38.7084 49.5 36.9167 50.1115C35.942 50.4433 35.001 50.6667 34.0677 50.6667H29.3333V44H34.0677C34.3312 44 34.5771 43.9503 34.801 43.8596C35.8596 43.4194 37.0583 42.7417 38.4167 41.875C42.0464 39.5492 44.6667 36.0024 44.6667 32C44.6667 25.0017 39.0017 19.3333 32 19.3333C24.9983 19.3333 19.3333 25.0017 19.3333 32V34.6667H26.6667V32C26.6667 29.0323 29.0323 26.6667 32 26.6667C34.9677 26.6667 37.3333 29.0323 37.3333 32C37.3333 34.9677 34.9677 37.3333 32 37.3333H29.3333V39.3333H32C36.0596 39.3333 39.3333 36.0596 39.3333 32C39.3333 27.9404 36.0596 24.6667 32 24.6667C27.9404 24.6667 24.6667 27.9404 24.6667 32V34.6667H17.3333V32C17.3333 20.9543 23.7126 12 32 12Z" fill="url(#gemini-gradient)"/>
</svg>
